<svg viewBox="0 0 900 300" xmlns="http://www.w3.org/2000/svg" font-family="Arial, sans-serif">
  <rect width="900" height="300" fill="#ffffff"/>
  <text x="130" y="20" font-size="11" fill="#c0392b">Amazon Management Console</text>

  <circle cx="150" cy="165" r="22" fill="none" stroke="#c0392b" stroke-width="2"/>
  <line x1="150" y1="187" x2="150" y2="230" stroke="#c0392b" stroke-width="2"/>
  <line x1="150" y1="200" x2="130" y2="220" stroke="#c0392b" stroke-width="2"/>
  <line x1="150" y1="200" x2="170" y2="220" stroke="#c0392b" stroke-width="2"/>
  <line x1="150" y1="230" x2="135" y2="255" stroke="#c0392b" stroke-width="2"/>
  <line x1="150" y1="230" x2="165" y2="255" stroke="#c0392b" stroke-width="2"/>
  <text x="130" y="270" font-size="11" fill="#c0392b">SaiKiran</text>
  <text x="140" y="285" font-size="11" fill="#2e86c1">Client</text>
  <text x="170" y="135" font-size="11" fill="#2e86c1">.zip</text>
  <text x="160" y="150" font-size="11" fill="#2e86c1">java, .net</text>
  <text x="150" y="165" font-size="11">Application</text>

  <path d="M170,175 C 300,120 400,130 500,155" stroke="#c0392b" stroke-width="1.5" fill="none" marker-end="url(#a19)"/>
  <text x="330" y="130" font-size="11" fill="#c0392b">AMC</text>

  <rect x="505" y="70" width="100" height="130" fill="none" stroke="#000" stroke-width="1.5"/>
  <text x="555" y="90" text-anchor="middle" font-size="11" fill="#c0392b">Application</text>
  <line x1="505" y1="98" x2="605" y2="98" stroke="#000"/>
  <text x="555" y="115" text-anchor="middle" font-size="11" fill="#c0392b">Data</text>
  <line x1="505" y1="123" x2="605" y2="123" stroke="#000"/>
  <text x="555" y="140" text-anchor="middle" font-size="11" fill="#c0392b">OS</text>
  <line x1="505" y1="148" x2="605" y2="148" stroke="#000"/>
  <text x="555" y="165" text-anchor="middle" font-size="11" fill="#c0392b">Virtualization</text>
  <line x1="505" y1="173" x2="605" y2="173" stroke="#000"/>
  <text x="555" y="190" text-anchor="middle" font-size="11" fill="#c0392b">Network, DC</text>

  <text x="625" y="115" font-size="11" fill="#2e86c1">IAAS</text>
  <text x="625" y="130" font-size="11" fill="#e67e22">AWS</text>

  <path d="M605,90 C 680,60 730,60 790,80" stroke="#c0392b" stroke-width="1.5" fill="none" marker-end="url(#a19)"/>

  <rect x="790" y="70" width="100" height="120" fill="none" stroke="#000" stroke-width="1.5"/>
  <text x="840" y="90" text-anchor="middle" font-size="10">VM  VM  VM  VM  VM</text>
  <line x1="790" y1="130" x2="890" y2="130" stroke="#000"/>
  <text x="840" y="120" text-anchor="middle" font-size="10" fill="#1a5276">Hypervisor</text>
  <line x1="790" y1="155" x2="890" y2="155" stroke="#000"/>
  <text x="840" y="145" text-anchor="middle" font-size="10" fill="#1a5276">Hardware</text>
  <text x="840" y="210" text-anchor="middle" font-size="11" font-weight="bold" fill="#c0392b">Physical Host Machine</text>

  <defs>
    <marker id="a19" markerWidth="10" markerHeight="10" refX="8" refY="3" orient="auto" markerUnits="strokeWidth"><path d="M0,0 L0,6 L9,3 z" fill="#c0392b"/></marker>
  </defs>
</svg>
