<svg viewBox="0 0 500 420" xmlns="http://www.w3.org/2000/svg" font-family="Arial, sans-serif">
  <rect width="500" height="420" fill="#ffffff"/>
  <rect x="60" y="60" width="70" height="330" fill="none" stroke="#000" stroke-width="2.5"/>
  <text x="95" y="230" text-anchor="middle" font-size="14" fill="#c0392b">LB</text>

  <g stroke="#000" stroke-width="1.5" fill="none">
    <line x1="130" y1="220" x2="215" y2="115"/>
    <line x1="130" y1="220" x2="215" y2="205"/>
    <line x1="130" y1="220" x2="215" y2="295"/>
    <line x1="130" y1="220" x2="215" y2="380"/>
  </g>

  <g font-size="12">
    <rect x="215" y="90" width="65" height="50" fill="none" stroke="#000" stroke-width="1.5"/>
    <text x="247" y="110" text-anchor="middle" fill="#c0392b">EC2</text><text x="247" y="128" text-anchor="middle" fill="#1e8449">App</text>
    <text x="288" y="118" fill="#2e86c1">4GB RAM</text>

    <rect x="215" y="180" width="65" height="50" fill="none" stroke="#000" stroke-width="1.5"/>
    <text x="247" y="200" text-anchor="middle" fill="#c0392b">EC2</text><text x="247" y="218" text-anchor="middle" fill="#1e8449">App</text>
    <text x="288" y="208" fill="#2e86c1">4GB RAM</text>

    <rect x="215" y="270" width="65" height="50" fill="none" stroke="#000" stroke-width="1.5"/>
    <text x="247" y="290" text-anchor="middle" fill="#c0392b">EC2</text><text x="247" y="308" text-anchor="middle" fill="#1e8449">App</text>
    <text x="288" y="298" fill="#2e86c1">4GB RAM</text>

    <rect x="215" y="355" width="65" height="50" fill="none" stroke="#000" stroke-width="1.5"/>
    <text x="247" y="375" text-anchor="middle" fill="#c0392b">EC2</text><text x="247" y="393" text-anchor="middle" fill="#1e8449">App</text>
    <text x="288" y="383" fill="#2e86c1">4GB RAM</text>
  </g>
</svg>
