<svg viewBox="0 0 960 380" xmlns="http://www.w3.org/2000/svg" font-family="Arial, sans-serif">
  <rect width="960" height="380" fill="#ffffff"/>

  <ellipse cx="255" cy="200" rx="230" ry="150" fill="none" stroke="#000" stroke-width="2"/>
  <rect x="150" y="105" width="70" height="55" fill="none" stroke="#1a237e" stroke-width="2"/>
  <text x="185" y="95" text-anchor="middle" font-size="11" fill="#c0392b">1a</text>
  <rect x="290" y="105" width="70" height="55" fill="none" stroke="#1a237e" stroke-width="2"/>
  <text x="325" y="95" text-anchor="middle" font-size="11" fill="#c0392b">1b</text>
  <rect x="220" y="230" width="70" height="55" fill="none" stroke="#1a237e" stroke-width="2"/>
  <text x="255" y="300" text-anchor="middle" font-size="11" fill="#c0392b">1c</text>
  <g stroke="#c0392b" stroke-width="2">
    <line x1="220" y1="132" x2="290" y2="132"/>
    <line x1="220" y1="160" x2="255" y2="230"/>
    <line x1="325" y1="160" x2="255" y2="230"/>
  </g>
  <text x="255" y="330" text-anchor="middle" font-size="13" font-weight="bold" fill="#c0392b">AWS - Region = Mumbai</text>

  <text x="470" y="195" text-anchor="middle" font-size="12" fill="#333">Network</text>
  <line x1="490" y1="200" x2="660" y2="200" stroke="#333" stroke-width="1.5" stroke-dasharray="5,4" marker-end="url(#a1)"/>
  <text x="560" y="220" text-anchor="middle" font-size="11" fill="#c0392b">default &#10005;</text>

  <ellipse cx="770" cy="200" rx="180" ry="130" fill="none" stroke="#000" stroke-width="2"/>
  <rect x="700" y="150" width="60" height="45" fill="none" stroke="#1e8449" stroke-width="2"/>
  <text x="730" y="140" text-anchor="middle" font-size="11" fill="#c0392b">1a</text>
  <rect x="800" y="150" width="60" height="45" fill="none" stroke="#1e8449" stroke-width="2"/>
  <text x="830" y="140" text-anchor="middle" font-size="11" fill="#c0392b">1b</text>
  <rect x="700" y="225" width="60" height="45" fill="none" stroke="#1e8449" stroke-width="2"/>
  <text x="730" y="285" text-anchor="middle" font-size="11" fill="#c0392b">1c</text>
  <rect x="800" y="225" width="60" height="45" fill="none" stroke="#1e8449" stroke-width="2"/>
  <text x="830" y="285" text-anchor="middle" font-size="11" fill="#c0392b">1d</text>
  <g stroke="#1e8449" stroke-width="1.5">
    <line x1="760" y1="172" x2="800" y2="172"/>
    <line x1="730" y1="195" x2="730" y2="225"/>
    <line x1="830" y1="195" x2="830" y2="225"/>
    <line x1="760" y1="247" x2="800" y2="247"/>
    <line x1="760" y1="172" x2="830" y2="247"/>
    <line x1="800" y1="172" x2="730" y2="247"/>
  </g>
  <text x="900" y="105" font-size="12" fill="#c0392b">eu-west-1</text>
  <text x="730" y="315" text-anchor="middle" font-size="12" fill="#c0392b">Ireland</text>

  <defs>
    <marker id="a1" markerWidth="10" markerHeight="10" refX="8" refY="3" orient="auto" markerUnits="strokeWidth"><path d="M0,0 L0,6 L9,3 z" fill="#333"/></marker>
  </defs>
</svg>
