<svg viewBox="0 0 640 520" xmlns="http://www.w3.org/2000/svg" font-family="Arial, sans-serif">
  <rect width="640" height="520" fill="#ffffff"/>
  <ellipse cx="320" cy="260" rx="270" ry="225" fill="none" stroke="#000" stroke-width="2"/>

  <text x="145" y="90" text-anchor="middle" font-size="13" fill="#7b1fa2">VPC</text>
  <ellipse cx="145" cy="165" rx="90" ry="75" fill="none" stroke="#7b1fa2" stroke-width="2"/>
  <g stroke="#8e2418" stroke-width="1.5" fill="none">
    <rect x="105" y="130" width="45" height="35"/><text x="127" y="152" text-anchor="middle" font-size="11" fill="#8e2418">EC2</text>
    <rect x="160" y="130" width="45" height="35"/><text x="182" y="152" text-anchor="middle" font-size="11" fill="#8e2418">EC2</text>
    <rect x="105" y="180" width="45" height="35"/><text x="127" y="202" text-anchor="middle" font-size="11" fill="#8e2418">EC2</text>
    <rect x="160" y="180" width="45" height="35"/><text x="182" y="202" text-anchor="middle" font-size="11" fill="#8e2418">EC2</text>
  </g>

  <text x="470" y="90" text-anchor="middle" font-size="13" fill="#1a237e">VPC</text>
  <ellipse cx="470" cy="165" rx="90" ry="75" fill="none" stroke="#1a237e" stroke-width="2"/>
  <g stroke="#7b1fa2" stroke-width="1.5" fill="none">
    <rect x="430" y="130" width="45" height="35"/><text x="452" y="152" text-anchor="middle" font-size="11" fill="#7b1fa2">EC2</text>
    <rect x="485" y="130" width="45" height="35"/><text x="507" y="152" text-anchor="middle" font-size="11" fill="#7b1fa2">EC2</text>
    <rect x="430" y="180" width="45" height="35"/><text x="452" y="202" text-anchor="middle" font-size="11" fill="#7b1fa2">EC2</text>
    <rect x="485" y="180" width="45" height="35"/><text x="507" y="202" text-anchor="middle" font-size="11" fill="#7b1fa2">EC2</text>
  </g>

  <text x="145" y="330" text-anchor="middle" font-size="13" fill="#17a2b8">VPC</text>
  <ellipse cx="145" cy="400" rx="90" ry="75" fill="none" stroke="#17a2b8" stroke-width="2"/>
  <g stroke="#1a237e" stroke-width="1.5" fill="none">
    <rect x="105" y="365" width="45" height="35"/><text x="127" y="387" text-anchor="middle" font-size="11" fill="#1a237e">EC2</text>
    <rect x="160" y="365" width="45" height="35"/><text x="182" y="387" text-anchor="middle" font-size="11" fill="#1a237e">EC2</text>
    <rect x="105" y="415" width="45" height="35"/><text x="127" y="437" text-anchor="middle" font-size="11" fill="#1a237e">EC2</text>
    <rect x="160" y="415" width="45" height="35"/><text x="182" y="437" text-anchor="middle" font-size="11" fill="#1a237e">EC2</text>
  </g>

  <text x="470" y="330" text-anchor="middle" font-size="13" fill="#1e8449">VPC</text>
  <ellipse cx="470" cy="400" rx="90" ry="75" fill="none" stroke="#1e8449" stroke-width="2"/>
  <g stroke="#17a2b8" stroke-width="1.5" fill="none">
    <rect x="430" y="365" width="45" height="35"/><text x="452" y="387" text-anchor="middle" font-size="11" fill="#17a2b8">EC2</text>
    <rect x="485" y="365" width="45" height="35"/><text x="507" y="387" text-anchor="middle" font-size="11" fill="#17a2b8">EC2</text>
    <rect x="430" y="415" width="45" height="35"/><text x="452" y="437" text-anchor="middle" font-size="11" fill="#17a2b8">EC2</text>
    <rect x="485" y="415" width="45" height="35"/><text x="507" y="437" text-anchor="middle" font-size="11" fill="#17a2b8">EC2</text>
  </g>
</svg>
